<svg width="300" height="300" viewBox="0 0 300 300" fill="none" xmlns="http://www.w3.org/2000/svg">
<path d="M91.7708 32.1456C91.7708 32.1456 139.312 -33.5006 180.279 22.829C208.229 61.2603 208.229 239.442 208.229 239.442L189.596 239.442C189.596 239.442 180.279 161.415 151.165 96.1978C122.05 30.9811 91.7708 32.1456 91.7708 32.1456Z" fill="#4B8BFC"/>
<path d="M192.161 25.4901C192.161 25.4901 272.197 12.6881 261.334 81.4872C253.923 128.426 127.93 254.419 127.93 254.419L114.754 241.243C114.754 241.243 163.339 179.482 188.867 112.78C214.395 46.0773 192.161 25.4901 192.161 25.4901Z" fill="#4B8BFC"/>
<path d="M267.854 91.7707C267.854 91.7707 333.501 139.312 277.171 180.279C238.74 208.229 60.5583 208.229 60.5583 208.229L60.5584 189.596C60.5584 189.596 138.585 180.279 203.802 151.165C269.019 122.05 267.854 91.7707 267.854 91.7707Z" fill="#4B8BFC"/>
<path d="M274.51 192.161C274.51 192.161 287.312 272.197 218.513 261.334C171.574 253.923 45.5809 127.93 45.5809 127.93L58.7567 114.754C58.7567 114.754 120.518 163.339 187.22 188.867C253.923 214.395 274.51 192.161 274.51 192.161Z" fill="#4B8BFC"/>
<path d="M208.229 267.854C208.229 267.854 160.688 333.501 119.721 277.171C91.7708 238.74 91.7707 60.5584 91.7707 60.5584L110.404 60.5584C110.404 60.5584 119.721 138.585 148.835 203.802C177.95 269.019 208.229 267.854 208.229 267.854Z" fill="#4B8BFC"/>
<path d="M107.839 274.51C107.839 274.51 27.8029 287.312 38.6659 218.513C46.0772 171.574 172.071 45.581 172.071 45.581L185.246 58.7568C185.246 58.7568 136.661 120.518 111.133 187.22C85.6046 253.923 107.839 274.51 107.839 274.51Z" fill="#4B8BFC"/>
<path d="M32.1456 208.229C32.1456 208.229 -33.5006 160.688 22.829 119.721C61.2603 91.7707 239.442 91.7707 239.442 91.7707V110.404C239.442 110.404 161.415 119.721 96.1978 148.835C30.9811 177.95 32.1456 208.229 32.1456 208.229Z" fill="#4B8BFC"/>
<path d="M25.49 107.839C25.49 107.839 12.688 27.803 81.4871 38.6659C128.426 46.0773 254.419 172.07 254.419 172.07L241.243 185.246C241.243 185.246 179.482 136.661 112.78 111.133C46.0772 85.6046 25.49 107.839 25.49 107.839Z" fill="#4B8BFC"/>
<path d="M184.004 149.067C184.004 168.362 168.362 184.004 149.067 184.004C129.771 184.004 114.129 168.362 114.129 149.067C114.129 129.771 129.771 114.129 149.067 114.129C168.362 114.129 184.004 129.771 184.004 149.067Z" fill="#4B8BFC"/>
</svg>
